<svg width="15" height="17" viewBox="0 0 15 17" fill="none" xmlns="http://www.w3.org/2000/svg">
<path fill-rule="evenodd" clip-rule="evenodd" d="M5.78084 6.58219C5.97614 6.42632 6.09344 6.16392 6.09344 5.88292V2.52125C6.09344 1.1288 5.15057 0 3.98748 0H1.17953C0.791829 0 0.477539 0.376268 0.477539 0.840418C0.477539 9.19511 6.83675 16.8084 13.8153 16.8084C14.203 16.8084 14.5173 16.4321 14.5173 15.9679V12.6063C14.5173 11.2138 13.5744 10.085 12.4113 10.085H9.60338C9.36866 10.085 9.14948 10.2254 9.01929 10.4592L7.68176 12.8612C6.22498 11.7335 4.94867 10.244 3.96694 8.52937L3.77455 8.18348L5.78084 6.58219ZM9.97906 11.7658H12.4113C12.799 11.7658 13.1133 12.142 13.1133 12.6062V15.0983C11.7534 14.9856 10.4262 14.5502 9.18832 13.8597L8.90426 13.6959L9.97906 11.7658ZM8.90135 3.36172C10.4521 3.36172 11.7093 4.86679 11.7093 6.72339C11.7093 7.18754 11.395 7.56381 11.0073 7.56381C10.6473 7.56381 10.3506 7.23937 10.31 6.8214L10.3015 6.59794C10.2479 5.72823 9.6415 5.04255 8.90135 5.04255C8.51365 5.04255 8.19936 4.66628 8.19936 4.20213C8.19936 3.73798 8.51365 3.36172 8.90135 3.36172ZM8.90135 0C12.0029 0 14.5172 3.01014 14.5172 6.72334C14.5172 7.18749 14.203 7.56376 13.8153 7.56376C13.4276 7.56376 13.1133 7.18749 13.1133 6.72334C13.1133 3.93844 11.2275 1.68084 8.90135 1.68084C8.51365 1.68084 8.19936 1.30457 8.19936 0.840418C8.19936 0.376268 8.51365 0 8.90135 0ZM3.9875 1.68062C4.3752 1.68062 4.68949 2.05689 4.68949 2.52104V5.43293L3.07729 6.71968C2.42124 5.14184 2.00722 3.43395 1.90588 1.68062H3.9875Z" fill="white"/>
</svg>
