<svg width="19" height="18" viewBox="0 0 19 18" fill="none" xmlns="http://www.w3.org/2000/svg">
<path d="M3.82639 7.795C5.34639 10.625 7.79 12.94 10.7825 14.38L13.1047 12.175C13.395 11.9 13.8119 11.82 14.1761 11.93C15.3583 12.3 16.6303 12.5 17.9444 12.5C18.5303 12.5 19 12.945 19 13.5V17C19 17.555 18.5303 18 17.9444 18C8.03278 18 0 10.39 0 1C0 0.445 0.475 0 1.05556 0H4.75C5.33583 0 5.80556 0.445 5.80556 1C5.80556 2.245 6.01667 3.45 6.40722 4.57C6.52333 4.915 6.43889 5.31 6.14861 5.585L3.82639 7.795Z" fill="#B3B3B3"/>
</svg>
