<svg width="20" height="20" viewBox="0 0 20 20" fill="none" xmlns="http://www.w3.org/2000/svg">
<path fill-rule="evenodd" clip-rule="evenodd" d="M7.96221 8.1934C8.19404 8.03884 8.33329 7.77865 8.33329 7.50002V4.16669C8.33329 2.78598 7.214 1.66669 5.83329 1.66669H2.49996C2.03972 1.66669 1.66663 2.03978 1.66663 2.50002C1.66663 10.7843 9.21569 18.3334 17.5 18.3334C17.9602 18.3334 18.3333 17.9603 18.3333 17.5V14.1667C18.3333 12.786 17.214 11.6667 15.8333 11.6667H12.5C12.2213 11.6667 11.9611 11.8059 11.8066 12.0378L10.2188 14.4195C8.48945 13.3013 6.97433 11.8243 5.80891 10.1242L5.58053 9.78118L7.96221 8.1934ZM12.9459 13.3334H15.8333C16.2935 13.3334 16.6666 13.7064 16.6666 14.1667V16.6378C15.0523 16.5261 13.4767 16.0943 12.0072 15.4097L11.67 15.2472L12.9459 13.3334ZM11.6666 5.00002C13.5076 5.00002 15 6.4924 15 8.33335C15 8.79359 14.6269 9.16669 14.1666 9.16669C13.7393 9.16669 13.387 8.84499 13.3389 8.43054L13.3287 8.20897C13.2651 7.34658 12.5453 6.66669 11.6666 6.66669C11.2064 6.66669 10.8333 6.29359 10.8333 5.83335C10.8333 5.37312 11.2064 5.00002 11.6666 5.00002ZM11.6666 1.66669C15.3485 1.66669 18.3333 4.65146 18.3333 8.33335C18.3333 8.79359 17.9602 9.16669 17.5 9.16669C17.0397 9.16669 16.6666 8.79359 16.6666 8.33335C16.6666 5.57193 14.428 3.33335 11.6666 3.33335C11.2064 3.33335 10.8333 2.96026 10.8333 2.50002C10.8333 2.03978 11.2064 1.66669 11.6666 1.66669ZM5.83329 3.33335C6.29353 3.33335 6.66663 3.70645 6.66663 4.16669V7.05403L4.75278 8.32993C3.97398 6.76539 3.48249 5.0719 3.36219 3.33335H5.83329Z" fill="#48B056"/>
</svg>
