<svg width="50" height="50" viewBox="0 0 50 50" fill="none" xmlns="http://www.w3.org/2000/svg">
<path d="M39.1562 10.8151C37.3141 8.9643 35.1204 7.49698 32.7029 6.49863C30.2854 5.50029 27.6925 4.99089 25.0753 5.00012C14.1085 5.00012 5.17077 13.8951 5.16072 24.8151C5.16072 28.3126 6.07986 31.715 7.81517 34.7275L5 45L15.5575 42.245C18.4782 43.8273 21.7502 44.6567 25.0753 44.6575H25.0854C36.0547 44.6575 44.9899 35.7625 45 24.8326C45.0025 22.2277 44.4872 19.648 43.4838 17.2423C42.4805 14.8365 41.0113 12.6522 39.1562 10.8151ZM25.0753 41.3025C22.1095 41.3035 19.1981 40.509 16.6474 39.0025L16.0447 38.6425L9.78152 40.2775L11.454 34.195L11.0623 33.5675C9.40434 30.9434 8.52749 27.9051 8.5334 24.8051C8.5334 15.7401 15.9593 8.34511 25.0854 8.34511C27.2595 8.34123 29.4129 8.7658 31.4214 9.59434C33.43 10.4229 35.2539 11.639 36.788 13.1726C38.3275 14.7002 39.548 16.5162 40.379 18.5157C41.21 20.5152 41.6351 22.6587 41.6298 24.8226C41.6198 33.92 34.1939 41.3025 25.0753 41.3025ZM34.1537 28.9676C33.659 28.7201 31.2155 27.5226 30.7559 27.3526C30.2988 27.1901 29.9648 27.1051 29.6384 27.6001C29.3044 28.0926 28.3501 29.215 28.0638 29.5375C27.7775 29.87 27.4812 29.9075 26.9839 29.6625C26.4892 29.4125 24.8845 28.8926 22.9859 27.2001C21.5043 25.8876 20.5123 24.2626 20.216 23.7701C19.9297 23.2751 20.1883 23.0101 20.437 22.7626C20.6554 22.5426 20.9317 22.1826 21.1803 21.8976C21.4314 21.6126 21.5143 21.4026 21.6775 21.0726C21.8408 20.7376 21.7629 20.4526 21.6399 20.2051C21.5143 19.9576 20.5223 17.5151 20.103 16.5301C19.7012 15.5576 19.2918 15.6926 18.9854 15.6801C18.6991 15.6626 18.3651 15.6626 18.0311 15.6626C17.7789 15.6688 17.5307 15.7269 17.3021 15.8332C17.0735 15.9394 16.8694 16.0916 16.7027 16.2801C16.2456 16.7751 14.9674 17.9726 14.9674 20.4151C14.9674 22.8576 16.7504 25.2051 17.0015 25.5376C17.2476 25.8701 20.5023 30.8675 25.4972 33.0175C26.6775 33.53 27.6067 33.8325 28.3325 34.0625C29.5254 34.4425 30.6027 34.385 31.4616 34.2625C32.4159 34.1175 34.4023 33.0625 34.8217 31.905C35.2335 30.745 35.2335 29.755 35.108 29.5475C34.9849 29.3376 34.6509 29.215 34.1537 28.9676Z" fill="white"/>
</svg>
